<svg width="129" height="94" viewBox="0 0 129 94" fill="none" xmlns="http://www.w3.org/2000/svg">
<rect x="0.15" y="0.15" width="128.7" height="93.7" rx="3.85" fill="#F8FAFB"/>
<rect opacity="0.69" x="119" y="2" width="3" height="3" fill="#DB3535"/>
<rect opacity="0.69" width="3" height="1" transform="matrix(1 0 0 -1 111 4)" fill="#B0B0B0"/>
<rect opacity="0.69" width="3" height="3" rx="1.5" transform="matrix(1 0 0 -1 115 5)" fill="#B0B0B0"/>
<g clip-path="url(#clip0_710_979)">
<mask id="path-5-inside-1_710_979" fill="white">
<path d="M0 0H27V94H0V0Z"/>
</mask>
<path d="M0 0H27V94H0V0Z" fill="white"/>
<g clip-path="url(#clip1_710_979)">
<rect x="8" y="30" width="14" height="2" rx="1" fill="#F2F2F2"/>
</g>
<g clip-path="url(#clip2_710_979)">
<rect x="2" y="30" width="2" height="2" rx="1" fill="#F2F2F2"/>
</g>
<g clip-path="url(#clip3_710_979)">
<rect x="8" y="24" width="14" height="2" rx="1" fill="#F2F2F2"/>
</g>
<g clip-path="url(#clip4_710_979)">
<rect x="2" y="24" width="2" height="2" rx="1" fill="#F2F2F2"/>
</g>
<g clip-path="url(#clip5_710_979)">
<rect x="8" y="36" width="14" height="2" rx="1" fill="#CCFFD7"/>
</g>
<g clip-path="url(#clip6_710_979)">
<rect x="2" y="36" width="2" height="2" rx="1" fill="#CCFFD7"/>
</g>
<g clip-path="url(#clip7_710_979)">
<rect x="8" y="42" width="14" height="2" rx="1" fill="#F2F2F2"/>
</g>
<g clip-path="url(#clip8_710_979)">
<rect x="2" y="42" width="2" height="2" rx="1" fill="#F2F2F2"/>
</g>
<g clip-path="url(#clip9_710_979)">
<rect x="8" y="81" width="14" height="2" rx="1" fill="#F2F2F2"/>
</g>
<g clip-path="url(#clip10_710_979)">
<rect x="2" y="81" width="2" height="2" rx="1" fill="#F2F2F2"/>
</g>
<g clip-path="url(#clip11_710_979)">
<rect x="8" y="87" width="14" height="2" rx="1" fill="#F2F2F2"/>
</g>
<g clip-path="url(#clip12_710_979)">
<rect x="2" y="87" width="2" height="2" rx="1" fill="#F2F2F2"/>
</g>
<g clip-path="url(#clip13_710_979)">
<rect x="2" y="51" width="23" height="14" rx="1" fill="#F2F2F2"/>
</g>
<g clip-path="url(#clip14_710_979)">
<rect x="2" y="9" width="4" height="4" rx="1" fill="#F2F2F2"/>
</g>
<g clip-path="url(#clip15_710_979)">
<rect x="8" y="9" width="12" height="3" rx="1" fill="#F2F2F2"/>
</g>
</g>
<path d="M26.9 0V94H27.1V0H26.9Z" fill="#ABABAB" mask="url(#path-5-inside-1_710_979)"/>
<g clip-path="url(#clip16_710_979)">
<rect x="30" y="11" width="16" height="14" rx="1" fill="#F2F2F2"/>
</g>
<g clip-path="url(#clip17_710_979)">
<rect x="30" y="29" width="67" height="39" rx="1" fill="#F2F2F2"/>
</g>
<g clip-path="url(#clip18_710_979)">
<rect x="101" y="56" width="25" height="34" rx="1" fill="#F2F2F2"/>
</g>
<g clip-path="url(#clip19_710_979)">
<rect x="107" y="29" width="19" height="2" rx="1" fill="#F2F2F2"/>
</g>
<g clip-path="url(#clip20_710_979)">
<rect x="107" y="32" width="13" height="1" rx="0.5" fill="#F2F2F2"/>
</g>
<g clip-path="url(#clip21_710_979)">
<rect x="101" y="29" width="4" height="4" rx="2" fill="#F2F2F2"/>
</g>
<g clip-path="url(#clip22_710_979)">
<rect x="107" y="35" width="19" height="2" rx="1" fill="#F2F2F2"/>
</g>
<g clip-path="url(#clip23_710_979)">
<rect x="107" y="38" width="13" height="1" rx="0.5" fill="#F2F2F2"/>
</g>
<g clip-path="url(#clip24_710_979)">
<rect x="101" y="35" width="4" height="4" rx="2" fill="#F2F2F2"/>
</g>
<g clip-path="url(#clip25_710_979)">
<rect x="107" y="41" width="19" height="2" rx="1" fill="#F2F2F2"/>
</g>
<g clip-path="url(#clip26_710_979)">
<rect x="107" y="44" width="13" height="1" rx="0.5" fill="#F2F2F2"/>
</g>
<g clip-path="url(#clip27_710_979)">
<rect x="101" y="41" width="4" height="4" rx="2" fill="#F2F2F2"/>
</g>
<g clip-path="url(#clip28_710_979)">
<rect x="107" y="47" width="19" height="2" rx="1" fill="#F2F2F2"/>
</g>
<g clip-path="url(#clip29_710_979)">
<rect x="107" y="50" width="13" height="1" rx="0.5" fill="#F2F2F2"/>
</g>
<g clip-path="url(#clip30_710_979)">
<rect x="101" y="47" width="4" height="4" rx="2" fill="#F2F2F2"/>
</g>
<g clip-path="url(#clip31_710_979)">
<rect x="30" y="72" width="67" height="3" rx="1" fill="#F2F2F2"/>
</g>
<g clip-path="url(#clip32_710_979)">
<rect x="30" y="76" width="67" height="4" rx="1" fill="#F2F2F2"/>
</g>
<g clip-path="url(#clip33_710_979)">
<rect x="30" y="81" width="67" height="4" rx="1" fill="#F2F2F2"/>
</g>
<g clip-path="url(#clip34_710_979)">
<rect x="30" y="86" width="67" height="4" rx="1" fill="#F2F2F2"/>
</g>
<g clip-path="url(#clip35_710_979)">
<rect x="30" y="6" width="16" height="2" rx="1" fill="#F2F2F2"/>
</g>
<g clip-path="url(#clip36_710_979)">
<rect x="47" y="11" width="16" height="14" rx="1" fill="#F2F2F2"/>
</g>
<g clip-path="url(#clip37_710_979)">
<rect x="64" y="11" width="16" height="14" rx="1" fill="#F2F2F2"/>
</g>
<g clip-path="url(#clip38_710_979)">
<rect x="81" y="11" width="16" height="14" rx="1" fill="#F2F2F2"/>
</g>
<g clip-path="url(#clip39_710_979)">
<rect x="100" y="11" width="27" height="14" rx="1" fill="#0D8BFF"/>
</g>
<rect x="0.15" y="0.15" width="128.7" height="93.7" rx="3.85" stroke="#ABABAB" stroke-width="0.3"/>
<defs>
<clipPath id="clip0_710_979">
<path d="M0 0H27V94H0V0Z" fill="white"/>
</clipPath>
<clipPath id="clip1_710_979">
<rect x="8" y="30" width="14" height="2" rx="1" fill="white"/>
</clipPath>
<clipPath id="clip2_710_979">
<rect x="2" y="30" width="2" height="2" rx="1" fill="white"/>
</clipPath>
<clipPath id="clip3_710_979">
<rect x="8" y="24" width="14" height="2" rx="1" fill="white"/>
</clipPath>
<clipPath id="clip4_710_979">
<rect x="2" y="24" width="2" height="2" rx="1" fill="white"/>
</clipPath>
<clipPath id="clip5_710_979">
<rect x="8" y="36" width="14" height="2" rx="1" fill="white"/>
</clipPath>
<clipPath id="clip6_710_979">
<rect x="2" y="36" width="2" height="2" rx="1" fill="white"/>
</clipPath>
<clipPath id="clip7_710_979">
<rect x="8" y="42" width="14" height="2" rx="1" fill="white"/>
</clipPath>
<clipPath id="clip8_710_979">
<rect x="2" y="42" width="2" height="2" rx="1" fill="white"/>
</clipPath>
<clipPath id="clip9_710_979">
<rect x="8" y="81" width="14" height="2" rx="1" fill="white"/>
</clipPath>
<clipPath id="clip10_710_979">
<rect x="2" y="81" width="2" height="2" rx="1" fill="white"/>
</clipPath>
<clipPath id="clip11_710_979">
<rect x="8" y="87" width="14" height="2" rx="1" fill="white"/>
</clipPath>
<clipPath id="clip12_710_979">
<rect x="2" y="87" width="2" height="2" rx="1" fill="white"/>
</clipPath>
<clipPath id="clip13_710_979">
<rect x="2" y="51" width="23" height="14" rx="1" fill="white"/>
</clipPath>
<clipPath id="clip14_710_979">
<rect x="2" y="9" width="4" height="4" rx="1" fill="white"/>
</clipPath>
<clipPath id="clip15_710_979">
<rect x="8" y="9" width="12" height="3" rx="1" fill="white"/>
</clipPath>
<clipPath id="clip16_710_979">
<rect x="30" y="11" width="16" height="14" rx="1" fill="white"/>
</clipPath>
<clipPath id="clip17_710_979">
<rect x="30" y="29" width="67" height="39" rx="1" fill="white"/>
</clipPath>
<clipPath id="clip18_710_979">
<rect x="101" y="56" width="25" height="34" rx="1" fill="white"/>
</clipPath>
<clipPath id="clip19_710_979">
<rect x="107" y="29" width="19" height="2" rx="1" fill="white"/>
</clipPath>
<clipPath id="clip20_710_979">
<rect x="107" y="32" width="13" height="1" rx="0.5" fill="white"/>
</clipPath>
<clipPath id="clip21_710_979">
<rect x="101" y="29" width="4" height="4" rx="2" fill="white"/>
</clipPath>
<clipPath id="clip22_710_979">
<rect x="107" y="35" width="19" height="2" rx="1" fill="white"/>
</clipPath>
<clipPath id="clip23_710_979">
<rect x="107" y="38" width="13" height="1" rx="0.5" fill="white"/>
</clipPath>
<clipPath id="clip24_710_979">
<rect x="101" y="35" width="4" height="4" rx="2" fill="white"/>
</clipPath>
<clipPath id="clip25_710_979">
<rect x="107" y="41" width="19" height="2" rx="1" fill="white"/>
</clipPath>
<clipPath id="clip26_710_979">
<rect x="107" y="44" width="13" height="1" rx="0.5" fill="white"/>
</clipPath>
<clipPath id="clip27_710_979">
<rect x="101" y="41" width="4" height="4" rx="2" fill="white"/>
</clipPath>
<clipPath id="clip28_710_979">
<rect x="107" y="47" width="19" height="2" rx="1" fill="white"/>
</clipPath>
<clipPath id="clip29_710_979">
<rect x="107" y="50" width="13" height="1" rx="0.5" fill="white"/>
</clipPath>
<clipPath id="clip30_710_979">
<rect x="101" y="47" width="4" height="4" rx="2" fill="white"/>
</clipPath>
<clipPath id="clip31_710_979">
<rect x="30" y="72" width="67" height="3" rx="1" fill="white"/>
</clipPath>
<clipPath id="clip32_710_979">
<rect x="30" y="76" width="67" height="4" rx="1" fill="white"/>
</clipPath>
<clipPath id="clip33_710_979">
<rect x="30" y="81" width="67" height="4" rx="1" fill="white"/>
</clipPath>
<clipPath id="clip34_710_979">
<rect x="30" y="86" width="67" height="4" rx="1" fill="white"/>
</clipPath>
<clipPath id="clip35_710_979">
<rect x="30" y="6" width="16" height="2" rx="1" fill="white"/>
</clipPath>
<clipPath id="clip36_710_979">
<rect x="47" y="11" width="16" height="14" rx="1" fill="white"/>
</clipPath>
<clipPath id="clip37_710_979">
<rect x="64" y="11" width="16" height="14" rx="1" fill="white"/>
</clipPath>
<clipPath id="clip38_710_979">
<rect x="81" y="11" width="16" height="14" rx="1" fill="white"/>
</clipPath>
<clipPath id="clip39_710_979">
<rect x="100" y="11" width="27" height="14" rx="1" fill="white"/>
</clipPath>
</defs>
</svg>
