<svg xmlns="http://www.w3.org/2000/svg" xmlns:xlink="http://www.w3.org/1999/xlink" version="1.1" width="256" height="256" viewBox="0 0 256 256" xml:space="preserve">

<defs>
</defs>
<g style="stroke: none; stroke-width: 0; stroke-dasharray: none; stroke-linecap: butt; stroke-linejoin: miter; stroke-miterlimit: 10; fill: none; fill-rule: nonzero; opacity: 1;" transform="translate(1.4065934065934016 1.4065934065934016) scale(2.81 2.81)" >
	<path d="M 45 90 c -9.067 0 -16.444 -7.377 -16.444 -16.444 S 35.933 57.112 45 57.112 s 16.444 7.376 16.444 16.443 S 54.067 90 45 90 z M 45 59.112 c -7.964 0 -14.444 6.479 -14.444 14.443 C 30.556 81.521 37.036 88 45 88 c 7.965 0 14.444 -6.479 14.444 -14.444 C 59.444 65.592 52.965 59.112 45 59.112 z" style="stroke: none; stroke-width: 1; stroke-dasharray: none; stroke-linecap: butt; stroke-linejoin: miter; stroke-miterlimit: 10; fill: rgb(0,0,0); fill-rule: nonzero; opacity: 1;" transform=" matrix(1 0 0 1 0 0) " stroke-linecap="round" />
	<path d="M 45 38.175 c -9.11 0 -16.522 -7.412 -16.522 -16.522 v -5.13 C 28.478 7.412 35.89 0 45 0 s 16.522 7.412 16.522 16.522 v 5.13 C 61.522 30.763 54.11 38.175 45 38.175 z M 45 2 c -8.008 0 -14.522 6.515 -14.522 14.522 v 5.13 c 0 8.008 6.515 14.522 14.522 14.522 s 14.522 -6.515 14.522 -14.522 v -5.13 C 59.522 8.515 53.008 2 45 2 z" style="stroke: none; stroke-width: 1; stroke-dasharray: none; stroke-linecap: butt; stroke-linejoin: miter; stroke-miterlimit: 10; fill: rgb(0,0,0); fill-rule: nonzero; opacity: 1;" transform=" matrix(1 0 0 1 0 0) " stroke-linecap="round" />
	<path d="M 39.752 78.896 c -2.896 0 -5.252 -2.356 -5.252 -5.253 c 0 -2.896 2.356 -5.252 5.252 -5.252 c 2.896 0 5.253 2.356 5.253 5.252 C 45.005 76.54 42.649 78.896 39.752 78.896 z M 39.752 70.392 c -1.793 0 -3.252 1.459 -3.252 3.252 c 0 1.794 1.459 3.253 3.252 3.253 s 3.253 -1.459 3.253 -3.253 C 43.005 71.851 41.546 70.392 39.752 70.392 z" style="stroke: none; stroke-width: 1; stroke-dasharray: none; stroke-linecap: butt; stroke-linejoin: miter; stroke-miterlimit: 10; fill: rgb(0,0,0); fill-rule: nonzero; opacity: 1;" transform=" matrix(1 0 0 1 0 0) " stroke-linecap="round" />
	<path d="M 54.5 74.644 H 44.005 c -0.552 0 -1 -0.447 -1 -1 s 0.448 -1 1 -1 H 54.5 c 0.553 0 1 0.447 1 1 S 55.053 74.644 54.5 74.644 z" style="stroke: none; stroke-width: 1; stroke-dasharray: none; stroke-linecap: butt; stroke-linejoin: miter; stroke-miterlimit: 10; fill: rgb(0,0,0); fill-rule: nonzero; opacity: 1;" transform=" matrix(1 0 0 1 0 0) " stroke-linecap="round" />
	<path d="M 52.467 77.224 c -0.553 0 -1 -0.447 -1 -1 v -2.58 c 0 -0.553 0.447 -1 1 -1 s 1 0.447 1 1 v 2.58 C 53.467 76.776 53.02 77.224 52.467 77.224 z" style="stroke: none; stroke-width: 1; stroke-dasharray: none; stroke-linecap: butt; stroke-linejoin: miter; stroke-miterlimit: 10; fill: rgb(0,0,0); fill-rule: nonzero; opacity: 1;" transform=" matrix(1 0 0 1 0 0) " stroke-linecap="round" />
	<path d="M 48.753 77.826 c -0.553 0 -1 -0.447 -1 -1 v -3.183 c 0 -0.553 0.447 -1 1 -1 s 1 0.447 1 1 v 3.183 C 49.753 77.379 49.306 77.826 48.753 77.826 z" style="stroke: none; stroke-width: 1; stroke-dasharray: none; stroke-linecap: butt; stroke-linejoin: miter; stroke-miterlimit: 10; fill: rgb(0,0,0); fill-rule: nonzero; opacity: 1;" transform=" matrix(1 0 0 1 0 0) " stroke-linecap="round" />
	<path d="M 67.054 74.598 h -6.609 c -0.553 0 -1 -0.447 -1 -1 s 0.447 -1 1 -1 h 6.609 c 0.826 0 1.499 -0.673 1.499 -1.499 v -9.371 c 0 -12.986 -10.565 -23.552 -23.553 -23.552 c -12.987 0 -23.553 10.566 -23.553 23.552 v 9.369 c 0 0.826 0.672 1.499 1.499 1.499 h 6.61 c 0.552 0 1 0.447 1 1 s -0.448 1 -1 1 h -6.61 c -1.929 0 -3.499 -1.569 -3.499 -3.499 v -9.369 c 0 -14.09 11.463 -25.552 25.553 -25.552 s 25.553 11.462 25.553 25.552 v 9.371 C 70.553 73.028 68.983 74.598 67.054 74.598 z" style="stroke: none; stroke-width: 1; stroke-dasharray: none; stroke-linecap: butt; stroke-linejoin: miter; stroke-miterlimit: 10; fill: rgb(0,0,0); fill-rule: nonzero; opacity: 1;" transform=" matrix(1 0 0 1 0 0) " stroke-linecap="round" />
</g>
</svg>